<?xml version="1.0" encoding="UTF-8" standalone="no"?>
<svg xmlns="http://www.w3.org/2000/svg" width="210" height="210">
  <path fill="#ff0" d="M0 0h210v210H0z"/>
  <g fill="red" transform="scale(30)">
    <circle r=".5"/>
    <circle cx="2" r=".5"/>
    <circle cx="4" r=".5"/>
    <circle cx="6" r=".5"/>
    <circle cx="1" cy="1" r=".5"/>
    <circle cx="3" cy="1" r=".5"/>
    <circle cx="5" cy="1" r=".5"/>
    <circle cx="7" cy="1" r=".5"/>
    <circle cy="2" r=".5"/>
    <circle cx="2" cy="2" r=".5"/>
    <circle cx="4" cy="2" r=".5"/>
    <circle cx="6" cy="2" r=".5"/>
    <circle cx="1" cy="3" r=".5"/>
    <circle cx="3" cy="3" r=".5"/>
    <circle cx="5" cy="3" r=".5"/>
    <circle cx="7" cy="3" r=".5"/>
    <circle cy="4" r=".5"/>
    <circle cx="2" cy="4" r=".5"/>
    <circle cx="4" cy="4" r=".5"/>
    <circle cx="6" cy="4" r=".5"/>
    <circle cx="1" cy="5" r=".5"/>
    <circle cx="3" cy="5" r=".5"/>
    <circle cx="5" cy="5" r=".5"/>
    <circle cx="7" cy="5" r=".5"/>
    <circle cy="6" r=".5"/>
    <circle cx="2" cy="6" r=".5"/>
    <circle cx="4" cy="6" r=".5"/>
    <circle cx="6" cy="6" r=".5"/>
    <circle cx="1" cy="7" r=".5"/>
    <circle cx="3" cy="7" r=".5"/>
    <circle cx="5" cy="7" r=".5"/>
    <circle cx="7" cy="7" r=".5"/>
  </g>
</svg>